
<!-- Generator: Adobe Illustrator 25.1.0, SVG Export Plug-In . SVG Version: 6.00 Build 0)  -->
<svg version="1.1" id="Laag_1" xmlns="http://www.w3.org/2000/svg" xmlns:xlink="http://www.w3.org/1999/xlink" x="0px" y="0px"
	 viewBox="0 0 142.9 60.5" style="enable-background:new 0 0 142.9 60.5;" xml:space="preserve">
<style type="text/css">
	.st0{fill:#00ACC8;}
	.st1{fill:#133742;}
	.st2{fill:#BE1E2A;}
</style>
<g>
	<path class="st0" d="M27.6,19.8h4.9v0.6c0,6.2,0,12.4,0,18.7c0,0.5,0,1,0.1,1.5c0.2,0.9,0.7,1.5,1.5,1.7c1.3,0.4,2.7,0.4,4.1,0.1
		c1.3-0.3,1.8-1,2-2.3c0-0.3,0-0.7,0-1.1c0-6.2,0-12.4,0-18.6v-0.6H45v0.6c0,6.2,0,12.4,0,18.7c0,0.5,0,1,0.1,1.5
		c0.2,0.9,0.7,1.5,1.7,1.8c1.3,0.4,2.7,0.4,4.1,0.1c1.2-0.3,1.9-1.1,1.9-2.4c0-0.4,0-0.7,0-1.1c0-6.2,0-12.3,0-18.5v-0.7h4.8
		c0,0.1,0,0.3,0,0.4c0,6.6,0,13.3,0,19.9c0,3.1-1.4,5.1-4.4,5.9c-3.1,0.9-6.3,0.9-9.3-0.3c-1-0.4-1.7-0.5-2.7,0
		c-1.5,0.7-3.2,0.8-4.8,0.8c-1.5,0-3.1-0.1-4.6-0.6c-2.8-0.9-4.2-2.8-4.2-5.7c0-2.5,0-5.1,0-7.6c0-4.1,0-8.2,0-12.3V19.8z"/>
	<path class="st0" d="M64.1,46.4H69v-0.6c0-6.2,0-12.4,0-18.7c0-0.5,0-1,0.1-1.5c0.2-0.9,0.7-1.5,1.5-1.7c1.3-0.4,2.7-0.4,4.1-0.1
		c1.3,0.3,1.8,1,2,2.3c0,0.3,0,0.7,0,1.1c0,6.2,0,12.4,0,18.6v0.6h4.9v-0.6c0-6.2,0-12.4,0-18.7c0-0.5,0-1,0.1-1.5
		c0.2-0.9,0.8-1.5,1.7-1.8c1.3-0.4,2.7-0.4,4.1-0.1c1.2,0.3,1.9,1.1,1.9,2.4c0,0.4,0,0.7,0,1.1c0,6.2,0,12.3,0,18.5v0.7h4.8
		c0-0.1,0-0.3,0-0.4c0-6.6,0-13.3,0-19.9c0-3.1-1.4-5.1-4.4-5.9c-3.1-0.9-6.3-0.9-9.3,0.3c-1,0.4-1.7,0.5-2.7,0
		c-1.5-0.7-3.2-0.8-4.8-0.8c-1.5,0-3.1,0.1-4.6,0.6c-2.8,0.9-4.2,2.8-4.2,5.7c0,2.5,0,5.1,0,7.6c0,4.1,0,8.2,0,12.3V46.4z"/>
	<path class="st0" d="M105.5,24.2v17.7c1.5,0,3,0,4.5,0c1,0,1.9-0.6,2.5-1.5c0.4-0.7,0.7-1.4,0.9-2.1c0.6-2.4,0.6-4.9,0.4-7.3
		c-0.1-1.3-0.3-2.6-0.6-3.8c-0.4-1.6-1.4-2.8-3.2-2.9C108.5,24.1,107.1,24.2,105.5,24.2 M100.6,46.3V19.8c0.1,0,0.3,0,0.4,0
		c2.8,0,5.6,0,8.4,0c1.6,0,3.2,0.2,4.6,0.9c2,0.9,3.2,2.6,3.9,4.6c0.7,2,0.9,4,1,6.1c0.1,2.9,0,5.8-0.7,8.6c-0.5,2-1.4,3.8-3.2,5
		c-1.4,0.9-2.9,1.4-4.6,1.4C107.2,46.4,103.9,46.3,100.6,46.3"/>
	<path class="st0" d="M138,33.5c0-2.5,0-5,0-7.5c0-1.3-0.7-2.1-2-2.5c-1.4-0.4-2.9-0.4-4.3-0.1c-1.5,0.3-2.2,1.2-2.3,2.7
		c0,2.4,0,4.8,0,7.2c0,0,0,0.1,0.1,0.1H138z M138,46.3V38h-8.6v8.4h-4.9v-0.5c0-6.5,0-13,0-19.5c0-1.3,0.2-2.6,0.9-3.8
		c0.9-1.4,2.3-2.2,3.8-2.6c3-0.8,6-0.8,8.9,0c3.2,0.9,4.7,3,4.7,6.3c0,6.6,0,13.1,0,19.7v0.5H138z"/>
	<path class="st0" d="M32,13c-0.4-1.8-1.1-3.9-2.4-5.8c-1.3-2-3.1-3.8-5.6-5.1c-2.3-1.3-5.2-2.1-8.3-2c-1.5,0-3,0.3-4.5,0.7
		C9.8,1.2,8.4,1.9,7,2.8c-1.3,0.9-2.5,2-3.5,3.3C3,6.8,2.5,7.4,2.1,8.2C1.6,9,1.4,9.6,1.1,10.4c-0.5,1.5-0.9,3.1-1,4.8
		c-0.1,1.6,0,3.3,0.4,4.8c0.4,1.6,1,3,1.8,4.4C3,25.7,4,26.9,5.1,28c1.1,1,2.3,1.9,3.6,2.6c0.7,0.4,1.3,0.6,1.9,0.9
		c0.7,0.3,1.3,0.4,2,0.6c2.7,0.6,5.3,0.5,7.5-0.1c1.9-0.5,3.6-1.3,5-2.3v-0.4c-1.4,0.9-3.1,1.7-5.1,2.1c-1.2,0.2-2.5,0.3-3.9,0.2
		c1-0.3,1.8-0.6,2.6-1.1c1.1-0.6,2.1-1.4,2.9-2.2c1.3-0.1,2.4-0.4,3.4-0.7v-0.3c-0.9,0.3-1.9,0.5-3,0.6c0.3-0.3,0.5-0.6,0.8-0.8
		c0.9-1.1,1.6-2.1,2.2-3v-0.6c-1.2-0.2-2.6-0.4-4.1-0.8c-0.5-0.1-1-0.3-1.6-0.5c0.2-0.5,0.4-0.9,0.6-1.3c0.4-0.9,0.7-1.5,0.8-2
		c0.2-0.5,0.3-0.7,0.3-0.7s0.1-0.3,0.3-0.7c0.2-0.5,0.4-1.2,0.7-2.1c0.1-0.3,0.2-0.7,0.3-1c0.5,0.2,0.9,0.5,1.4,0.7
		c1.3,0.7,2.5,1.4,3.5,2.2h0.5c0-0.1,0-0.2,0.1-0.3c0.3-1.1,0.4-2.5,0.5-4.1c0-0.2,0-0.4,0-0.7c1.5,1.7,2.4,3.5,2.8,5.1h0.2
		c-0.2-0.8-0.5-1.7-0.9-2.6c-0.5-1-1.2-2.1-2.1-3.1c-0.1-1.3-0.3-2.7-0.8-4.1c-0.3-0.8-0.7-1.7-1.2-2.5c1,0.8,1.9,1.7,2.6,2.7
		c1.4,1.8,2.2,3.8,2.6,5.6c0.4,1.5,0.4,2.8,0.4,4h0.3C32.4,15.9,32.4,14.5,32,13z M21.5,2.2c0.4,0.1,0.8,0.3,1.2,0.4
		c0,0,0.1,0.1,0.1,0.2c0.4,0.7,0.5,1.5,0.6,2.4c0,0.7,0,1.3,0,2c-0.4-0.3-0.9-0.5-1.3-0.7c-1.2-0.6-2.4-1.1-3.8-1.5
		c0.2-0.2,0.4-0.5,0.6-0.7c0.6-0.7,1.3-1.4,2.1-1.8C21.1,2.3,21.3,2.3,21.5,2.2z M16.9,2.3c1-0.3,2-0.5,3-0.4
		c-0.7,0.4-1.3,1-1.9,1.6c-0.3,0.3-0.6,0.7-0.9,1.1c-0.6-0.1-1.2-0.3-1.9-0.4c-0.5-0.1-1-0.1-1.6-0.2c0,0,0.1-0.1,0.1-0.1
		C14.8,3.2,15.8,2.7,16.9,2.3z M10.4,18.2c-1.4-0.8-2.7-1.6-4.1-2.6c0.2-0.9,0.5-1.9,0.8-2.8C7.5,12.2,7.7,11.5,8,11
		c0.2-0.4,0.4-0.8,0.6-1.2c1.6,0.2,3.2,0.5,4.7,0.9c-0.6,1.2-1.2,2.5-1.7,3.7C11.2,15.7,10.8,16.9,10.4,18.2z M11.3,19.5
		c1.6,0.7,3.1,1.4,4.7,1.9c0.9,0.3,1.9,0.6,2.8,0.9c-0.2,0.4-0.4,0.8-0.6,1.2c-0.6,1.1-1.4,2.4-2.3,3.6c-0.5-0.1-1-0.3-1.5-0.5
		c-0.5-0.2-1.1-0.4-1.6-0.6c-0.5-0.3-1.1-0.5-1.6-0.8c-0.3-0.2-0.6-0.4-1-0.6c0.2-1.3,0.4-2.6,0.7-3.8C11.1,20.4,11.2,20,11.3,19.5z
		 M9.2,8.9c0.6-0.9,1.2-1.7,1.9-2.5c0.3-0.4,0.7-0.7,1-1c1-0.1,2-0.1,3,0c0.4,0,0.9,0.1,1.3,0.2c-0.7,1-1.3,2-1.9,3.1
		C14.2,9,14,9.5,13.7,10C12.3,9.5,10.8,9.1,9.2,8.9z M8.2,4.5c2-1.5,4.4-2.4,6.7-2.8c-0.7,0.3-1.3,0.6-1.9,1
		c-0.6,0.4-1.1,0.8-1.7,1.3C10.3,4.1,9.2,4.3,8.2,4.5C8.1,4.6,8.2,4.5,8.2,4.5z M4.5,8.5c0.9-1,2.1-1.7,3.5-2.2C8.5,6,9,5.9,9.6,5.7
		C8.8,6.6,8.1,7.5,7.5,8.5c0,0,0,0.1-0.1,0.1c-0.9-0.1-1.7-0.1-2.7,0c-0.1,0-0.3,0-0.4,0.1C4.4,8.6,4.4,8.5,4.5,8.5z M2.9,13.8
		c0.6,0.7,1.2,1.2,1.9,1.7c-0.2,1.1-0.4,2.3-0.4,3.5c-0.2-0.4-0.5-0.8-0.7-1.1c-0.7-1.4-1.1-3-1.1-4.5C2.6,13.5,2.7,13.7,2.9,13.8z
		 M2.4,19.5c-0.1-0.3-0.1-0.6-0.2-1c0.6,1.1,1.3,2,2.1,2.9c0.1,0.9,0.2,1.8,0.5,2.6c0.2,0.7,0.4,1.3,0.7,2C4,24.2,2.9,21.9,2.4,19.5
		z M5,14.4C4.5,14,4,13.6,3.6,13.1c-0.3-0.4-0.6-0.8-0.8-1.2c0.1-0.3,0.2-0.5,0.3-0.8c0.2-0.3,0.3-0.8,0.5-1.2
		C4,9.8,4.5,9.7,4.9,9.7c0.6-0.1,1.3-0.1,2-0.1c-0.1,0.2-0.2,0.5-0.4,0.7C6.2,11,6,11.5,5.7,12.2C5.4,12.9,5.2,13.7,5,14.4z M7.4,27
		c-0.6-1-1-2.1-1.3-3.3c0-0.2-0.1-0.4-0.1-0.6c0.5,0.4,1,0.8,1.5,1.1C8,24.7,8.5,25,9,25.3c0,0.5-0.1,1.1,0,1.6
		c0,0.8,0.1,1.6,0.3,2.4C8.6,28.6,7.9,27.9,7.4,27z M9.1,24c-0.3-0.2-0.6-0.4-0.9-0.7c-0.5-0.3-0.9-0.8-1.4-1.2
		c-0.4-0.4-0.7-0.7-1.1-1.1c0-0.3,0-0.6,0-0.9c0-1.2,0.1-2.3,0.4-3.5c1.3,0.9,2.7,1.7,4.1,2.4c-0.1,0.5-0.3,1.1-0.4,1.6
		C9.5,21.7,9.3,22.9,9.1,24z M12.1,30.4c-0.2,0.1-0.3,0.1-0.5,0.1c-0.2-0.1-0.4-0.1-0.5-0.2c-0.1-0.1-0.2-0.1-0.3-0.2L10.7,30
		c-0.1-0.1-0.2-0.3-0.3-0.5c-0.3-0.8-0.4-1.7-0.4-2.7c0-0.3,0-0.7,0.1-1c0.2,0.1,0.4,0.2,0.7,0.3c0.5,0.3,1.1,0.5,1.6,0.7
		c0.6,0.2,1.1,0.4,1.7,0.6c0.4,0.1,0.8,0.2,1.2,0.3C14.4,28.8,13.4,29.9,12.1,30.4z M18.5,29.9c-1.6,0.8-3.6,1.3-5.6,1
		c1.4-0.8,2.3-1.9,3.1-3c1.5,0.3,3,0.4,4.4,0.4c0.2,0,0.4,0,0.6,0C20.2,28.9,19.4,29.4,18.5,29.9z M21,22.9c1.4,0.3,2.8,0.6,4,0.7
		c-0.6,0.9-1.3,2-2.3,3.1c-0.4,0.4-0.8,0.8-1.2,1.1c-0.4,0-0.7,0-1.1,0c-1.3,0-2.6-0.2-3.9-0.5c1.2-1.8,2.2-3.4,2.9-4.8
		C19.9,22.6,20.5,22.8,21,22.9z M21.8,15.1c-0.3,0.9-0.5,1.6-0.7,2c-0.2,0.5-0.3,0.7-0.3,0.7s-0.1,0.2-0.3,0.7
		c-0.2,0.5-0.5,1.1-0.9,2c-0.2,0.4-0.4,0.9-0.7,1.3c-0.9-0.3-1.8-0.6-2.8-1c-1.5-0.6-3.1-1.3-4.7-2.1c0.4-1.3,0.8-2.6,1.3-3.8
		c0.5-1.3,1.1-2.6,1.7-3.8c1.7,0.5,3.3,1,4.8,1.7c1,0.4,1.9,0.8,2.8,1.2C22,14.4,21.9,14.8,21.8,15.1z M22.2,13.5
		c-0.8-0.4-1.7-0.9-2.7-1.3c-1.4-0.7-3-1.3-4.6-1.8c0.2-0.4,0.4-0.8,0.6-1.2c0.7-1.2,1.4-2.3,2.1-3.4c1.4,0.3,2.8,0.8,4.1,1.4
		c0.5,0.2,1.1,0.5,1.6,0.8c-0.1,1.4-0.4,2.8-0.7,3.9C22.5,12.5,22.4,13,22.2,13.5z M28.1,12.7c0,1.6-0.1,3-0.4,4.1c0,0,0,0.1,0,0.1
		c-1-0.8-2.2-1.5-3.5-2.3c-0.5-0.3-1-0.5-1.4-0.8c0.4-1.5,0.9-3.3,1.2-5.5c1.1,0.7,2.1,1.4,3,2.2c0.4,0.3,0.7,0.7,1,1
		C28,11.9,28.1,12.3,28.1,12.7z M27.1,7.5c0.5,1.1,0.7,2.2,0.8,3.3c-0.2-0.2-0.4-0.5-0.6-0.7c-0.9-0.9-2-1.8-3.2-2.6
		c0.1-0.8,0.1-1.6,0.1-2.4c0-0.6-0.1-1.3-0.3-1.9C25.4,4.3,26.5,6,27.1,7.5z"/>
</g>
<g>
	<g>
		<path class="st1" d="M0.2,53.2H1l0,0.5c0.4-0.3,1.1-0.6,1.7-0.6c0.7,0,1.1,0.2,1.3,0.6c0.4-0.3,1.1-0.6,1.8-0.6
			c1.1,0,1.5,0.5,1.5,1.9v3.1h-1v-3.1c0-0.8-0.1-1.2-0.9-1.2c-0.3,0-0.8,0.2-1.2,0.4c0,0.2,0,0.4,0,0.7v3.1h-1v-3.1
			c0-0.8-0.1-1.2-0.9-1.2c-0.3,0-0.8,0.2-1.2,0.5v3.8h-1V53.2z"/>
		<path class="st1" d="M9.2,55.5c0.6-0.2,1.3-0.3,1.9-0.3v-0.5c0-0.7-0.3-0.8-1.1-0.8c-0.4,0-1.1,0.2-1.4,0.4l-0.2-0.6
			c0.2-0.1,1.1-0.5,1.8-0.5c1.1,0,1.8,0.3,1.8,1.6v3.6h-0.4c-0.3,0-0.5,0-0.5-0.5v0c-0.3,0.2-0.8,0.5-1.4,0.5
			c-0.9,0-1.5-0.5-1.5-1.4C8.3,56.2,8.6,55.8,9.2,55.5z M10.1,57.6c0.4,0,1-0.2,1.1-0.4v-1.4c-0.4,0-1,0.1-1.4,0.2
			c-0.3,0.2-0.6,0.4-0.6,0.7C9.2,57.3,9.5,57.6,10.1,57.6z"/>
		<path class="st1" d="M13.6,53.9h-0.7v-0.5c0.4-0.1,0.6-0.1,0.7-0.4c0.1-0.2,0.2-0.5,0.3-0.9h0.6v1.1H16v0.7h-1.4v2.5
			c0,1,0.1,1,0.6,1c0.3,0,0.7-0.1,0.9-0.2l0.2,0.6c-0.3,0.2-0.9,0.4-1.4,0.4c-0.6,0-1.2-0.2-1.2-1.3V53.9z"/>
		<path class="st1" d="M18.9,53.1c0.6,0,1.1,0.2,1.2,0.3L20,54.2c-0.3-0.2-0.6-0.3-1.1-0.3c-0.7,0-1.4,0.5-1.4,1.7
			c0,1.3,0.6,2,1.4,2c0.5,0,1-0.2,1.2-0.3l0.2,0.5c-0.3,0.3-0.9,0.5-1.5,0.5c-1.4,0-2.2-1.1-2.2-2.5C16.5,54.3,17.3,53.1,18.9,53.1z
			"/>
		<path class="st1" d="M21.1,50.9h1V53l0,0.7c0.4-0.3,1.1-0.6,1.7-0.6c1.1,0,1.5,0.6,1.5,2v3.1h-1v-3.1c0-0.8-0.2-1.2-1-1.2
			c-0.3,0-0.8,0.2-1.2,0.5v3.8h-1V50.9z"/>
		<path class="st1" d="M26.4,51.7c0-0.4,0.4-0.7,0.7-0.7c0.4,0,0.6,0.3,0.6,0.6c0,0.4-0.3,0.7-0.7,0.7
			C26.7,52.3,26.4,52.1,26.4,51.7z M26.6,53.2h1v5h-1V53.2z"/>
		<path class="st1" d="M28.9,53.2h0.9l0,0.5c0.4-0.3,1.1-0.6,1.7-0.6c1.1,0,1.5,0.5,1.5,2v3.1h-1v-3.1c0-0.8-0.2-1.2-0.9-1.2
			c-0.3,0-0.8,0.2-1.2,0.5v3.8h-1V53.2z"/>
		<path class="st1" d="M34.7,58c-0.3-0.2-0.4-0.5-0.4-0.8c0-0.3,0.2-0.7,0.6-1c-0.5-0.3-0.9-0.8-0.9-1.4c0-1.2,0.9-1.7,2-1.7
			c0.5,0,0.9,0.1,1.3,0.3c0.2-0.1,0.6-0.3,0.9-0.3h0.5V54h-0.9c0.1,0.2,0.2,0.5,0.2,0.9c0,1.1-0.9,1.7-2,1.7c-0.2,0-0.4,0-0.5-0.1
			c-0.2,0.1-0.3,0.3-0.3,0.5c0,0.4,0.2,0.5,0.6,0.5h0.9c1.5,0,1.8,0.7,1.8,1.4c0,1-1.1,1.6-2.4,1.6C34.8,60.5,34,60,34,59
			C34,58.5,34.4,58.2,34.7,58z M36.2,59.8c0.8,0,1.5-0.3,1.5-0.8c0-0.5-0.2-0.8-1.2-0.8h-0.4c-0.3,0-0.5,0-0.7,0
			c-0.2,0.1-0.3,0.3-0.3,0.7C35,59.5,35.3,59.8,36.2,59.8z M37.1,54.9c0-0.7-0.3-1.1-1-1.1c-0.6,0-1.1,0.2-1.1,1
			c0,0.6,0.3,1.1,1,1.1C36.7,55.9,37.1,55.7,37.1,54.9z"/>
		<path class="st1" d="M44.1,53.1c0.3,0,0.6,0.1,0.8,0.1l0-0.3v-2.1h1v7.4h-0.4c-0.3,0-0.5,0-0.5-0.4v-0.2c-0.2,0.2-0.6,0.6-1.4,0.6
			c-1.1,0-2-0.8-2-2.4C41.6,54.3,42.6,53.1,44.1,53.1z M44.9,57.1v-3.1c-0.2-0.2-0.5-0.2-0.9-0.2c-0.8,0-1.4,0.7-1.4,1.9
			c0,1.2,0.4,1.8,1.3,1.8C44.3,57.5,44.7,57.3,44.9,57.1z"/>
		<path class="st1" d="M46.7,55.6c0-1.6,1-2.5,2.3-2.5c1.6,0,2.2,1.3,2.2,2.7c0,1.6-1,2.5-2.3,2.5C47.3,58.3,46.7,57,46.7,55.6z
			 M50.2,55.8c0-1.1-0.4-1.9-1.2-1.9c-0.8,0-1.3,0.6-1.3,1.8c0,1.1,0.4,2,1.2,2C49.8,57.6,50.2,56.9,50.2,55.8z"/>
		<path class="st1" d="M52.1,53.2H53l0,0.5c0.4-0.3,1.1-0.6,1.7-0.6c1.1,0,1.5,0.5,1.5,2v3.1h-1v-3.1c0-0.8-0.2-1.2-0.9-1.2
			c-0.3,0-0.8,0.2-1.2,0.5v3.8h-1V53.2z"/>
		<path class="st1" d="M57.2,55.6c0-1.6,1-2.5,2.3-2.5c1.6,0,2.2,1.3,2.2,2.7c0,1.6-1,2.5-2.3,2.5C57.8,58.3,57.2,57,57.2,55.6z
			 M60.7,55.8c0-1.1-0.4-1.9-1.2-1.9c-0.8,0-1.3,0.6-1.3,1.8c0,1.1,0.4,2,1.2,2C60.3,57.6,60.7,56.9,60.7,55.8z"/>
		<path class="st1" d="M62.6,53.2h0.8l0.1,0.6c0.2-0.2,0.8-0.6,1.4-0.6c0.2,0,0.4,0,0.5,0.1v0.9c-0.1,0-0.2-0.1-0.7-0.1
			c-0.5,0-0.9,0.2-1.1,0.4v3.8h-1V53.2z"/>
		<path class="st1" d="M65.9,57.2c0.1,0.1,0.8,0.4,1.4,0.4c0.6,0,0.9-0.2,0.9-0.6c0-0.4-0.5-0.6-1-0.9c-0.8-0.3-1.4-0.8-1.4-1.6
			c0-0.9,0.8-1.3,1.8-1.3c0.6,0,1.1,0.2,1.3,0.3l-0.2,0.7c-0.2-0.1-0.6-0.3-1.1-0.3c-0.6,0-0.9,0.2-0.9,0.5c0,0.5,0.4,0.7,1,0.9
			c0.7,0.3,1.5,0.7,1.5,1.6c0,0.9-0.7,1.4-1.8,1.4c-0.7,0-1.4-0.2-1.6-0.4L65.9,57.2z"/>
		<path class="st1" d="M77.9,57.2c0.1,0.1,0.8,0.4,1.4,0.4c0.6,0,0.9-0.2,0.9-0.6c0-0.4-0.5-0.6-1-0.9c-0.8-0.3-1.4-0.8-1.4-1.6
			c0-0.9,0.8-1.3,1.8-1.3c0.6,0,1.1,0.2,1.3,0.3l-0.2,0.7c-0.2-0.1-0.6-0.3-1.1-0.3c-0.6,0-0.9,0.2-0.9,0.5c0,0.5,0.4,0.7,1,0.9
			c0.7,0.3,1.5,0.7,1.5,1.6c0,0.9-0.7,1.4-1.8,1.4c-0.7,0-1.4-0.2-1.6-0.4L77.9,57.2z"/>
		<path class="st1" d="M84,53.1c1,0,1.8,0.6,1.8,1.9c0,0.4,0,0.7,0,0.9h-3.1c0,0,0,0.1,0,0.1c0.1,1.2,0.7,1.5,1.5,1.5
			c0.3,0,1-0.1,1.2-0.3l0.2,0.6c-0.3,0.3-1.1,0.4-1.7,0.4c-1.4,0-2.2-1-2.2-2.6C81.8,54.3,82.5,53.2,84,53.1z M85,55.3
			c0-0.7-0.1-1.5-1-1.5c-0.6,0-1.1,0.4-1.2,1.5H85z"/>
		<path class="st1" d="M86.8,53.2h0.8l0.1,0.6c0.2-0.2,0.8-0.6,1.4-0.6c0.2,0,0.4,0,0.5,0.1v0.9c-0.1,0-0.2-0.1-0.7-0.1
			c-0.5,0-0.9,0.2-1.1,0.4v3.8h-1V53.2z"/>
		<path class="st1" d="M89.5,53.2h1l1,2.9l0.4,1.2l0.3-1.2l1-2.9h1l-1.9,5.1h-0.8L89.5,53.2z"/>
		<path class="st1" d="M94.8,51.7c0-0.4,0.4-0.7,0.7-0.7c0.4,0,0.6,0.3,0.6,0.6c0,0.4-0.3,0.7-0.7,0.7
			C95.1,52.3,94.8,52.1,94.8,51.7z M94.9,53.2h1v5h-1V53.2z"/>
		<path class="st1" d="M97.3,53.2h0.9l0,0.5c0.4-0.3,1.1-0.6,1.7-0.6c1.1,0,1.5,0.5,1.5,2v3.1h-1v-3.1c0-0.8-0.2-1.2-0.9-1.2
			c-0.3,0-0.8,0.2-1.2,0.5v3.8h-1V53.2z"/>
		<path class="st1" d="M103.1,58c-0.3-0.2-0.4-0.5-0.4-0.8c0-0.3,0.2-0.7,0.6-1c-0.5-0.3-0.9-0.8-0.9-1.4c0-1.2,0.9-1.7,2-1.7
			c0.5,0,0.9,0.1,1.3,0.3c0.2-0.1,0.6-0.3,0.9-0.3h0.5V54h-0.9c0.1,0.2,0.2,0.5,0.2,0.9c0,1.1-0.9,1.7-2,1.7c-0.2,0-0.4,0-0.5-0.1
			c-0.2,0.1-0.3,0.3-0.3,0.5c0,0.4,0.2,0.5,0.6,0.5h0.9c1.5,0,1.8,0.7,1.8,1.4c0,1-1.1,1.6-2.4,1.6c-1.3,0-2.1-0.5-2.1-1.5
			C102.4,58.5,102.8,58.2,103.1,58z M104.5,59.8c0.8,0,1.5-0.3,1.5-0.8c0-0.5-0.2-0.8-1.2-0.8h-0.4c-0.3,0-0.5,0-0.7,0
			c-0.2,0.1-0.3,0.3-0.3,0.7C103.4,59.5,103.7,59.8,104.5,59.8z M105.5,54.9c0-0.7-0.3-1.1-1-1.1c-0.6,0-1.1,0.2-1.1,1
			c0,0.6,0.3,1.1,1,1.1C105.1,55.9,105.5,55.7,105.5,54.9z"/>
		<path class="st1" d="M111.3,58.8v1.6h-1v-7.2h0.9v0.5c0.2-0.2,0.6-0.6,1.4-0.6c1.1,0,2,0.8,2,2.4c0,1.6-1,2.8-2.5,2.8
			c-0.3,0-0.6-0.1-0.8-0.1L111.3,58.8z M112.2,57.6c0.8,0,1.4-0.7,1.4-1.9c0-1.2-0.4-1.8-1.3-1.8c-0.5,0-0.9,0.2-1.1,0.4v3.1
			C111.5,57.5,111.7,57.6,112.2,57.6z"/>
		<path class="st1" d="M116,55.5c0.6-0.2,1.3-0.3,1.9-0.3v-0.5c0-0.7-0.3-0.8-1.1-0.8c-0.4,0-1.1,0.2-1.4,0.4l-0.2-0.6
			c0.2-0.1,1.1-0.5,1.8-0.5c1.1,0,1.8,0.3,1.8,1.6v3.6h-0.4c-0.3,0-0.5,0-0.5-0.5v0c-0.3,0.2-0.8,0.5-1.4,0.5
			c-0.9,0-1.5-0.5-1.5-1.4C115.1,56.2,115.4,55.8,116,55.5z M116.9,57.6c0.4,0,1-0.2,1.1-0.4v-1.4c-0.4,0-1,0.1-1.4,0.2
			c-0.3,0.2-0.6,0.4-0.6,0.7C116,57.3,116.3,57.6,116.9,57.6z"/>
		<path class="st1" d="M120.4,53.9h-0.7v-0.5c0.4-0.1,0.6-0.1,0.7-0.4c0.1-0.2,0.2-0.5,0.3-0.9h0.6v1.1h1.4v0.7h-1.4v2.5
			c0,1,0.1,1,0.6,1c0.3,0,0.7-0.1,0.9-0.2l0.2,0.6c-0.3,0.2-0.9,0.4-1.4,0.4c-0.6,0-1.2-0.2-1.2-1.3V53.9z"/>
		<path class="st1" d="M123.6,51.7c0-0.4,0.4-0.7,0.7-0.7c0.4,0,0.6,0.3,0.6,0.6c0,0.4-0.3,0.7-0.7,0.7
			C123.9,52.3,123.6,52.1,123.6,51.7z M123.8,53.2h1v5h-1V53.2z"/>
		<path class="st1" d="M128,53.1c1,0,1.8,0.6,1.8,1.9c0,0.4,0,0.7,0,0.9h-3.1c0,0,0,0.1,0,0.1c0.1,1.2,0.7,1.5,1.5,1.5
			c0.3,0,1-0.1,1.2-0.3l0.2,0.6c-0.3,0.3-1.1,0.4-1.7,0.4c-1.4,0-2.2-1-2.2-2.6C125.8,54.3,126.5,53.2,128,53.1z M129,55.3
			c0-0.7-0.1-1.5-1-1.5c-0.6,0-1.1,0.4-1.2,1.5H129z"/>
		<path class="st1" d="M130.8,53.2h0.9l0,0.5c0.4-0.3,1.1-0.6,1.7-0.6c1.1,0,1.5,0.5,1.5,2v3.1h-1v-3.1c0-0.8-0.2-1.2-0.9-1.2
			c-0.3,0-0.8,0.2-1.2,0.5v3.8h-1V53.2z"/>
		<path class="st1" d="M136.5,53.9h-0.7v-0.5c0.4-0.1,0.6-0.1,0.7-0.4c0.1-0.2,0.2-0.5,0.3-0.9h0.6v1.1h1.4v0.7h-1.4v2.5
			c0,1,0.1,1,0.6,1c0.3,0,0.7-0.1,0.9-0.2l0.2,0.6c-0.3,0.2-0.9,0.4-1.4,0.4c-0.6,0-1.2-0.2-1.2-1.3V53.9z"/>
		<path class="st1" d="M139.6,57.2c0.1,0.1,0.8,0.4,1.4,0.4c0.6,0,0.9-0.2,0.9-0.6c0-0.4-0.5-0.6-1-0.9c-0.8-0.3-1.4-0.8-1.4-1.6
			c0-0.9,0.8-1.3,1.8-1.3c0.6,0,1.1,0.2,1.3,0.3l-0.2,0.7c-0.2-0.1-0.6-0.3-1.1-0.3c-0.6,0-0.9,0.2-0.9,0.5c0,0.5,0.4,0.7,1,0.9
			c0.7,0.3,1.5,0.7,1.5,1.6c0,0.9-0.7,1.4-1.8,1.4c-0.7,0-1.4-0.2-1.6-0.4L139.6,57.2z"/>
	</g>
	<g>
		<path class="st2" d="M74.2,54.8c0.2,0.2,0.3,0.5,0.3,0.8c0,0.3-0.1,0.6-0.3,0.9c-0.2,0.2-0.5,0.3-0.8,0.3c-0.3,0-0.6-0.1-0.8-0.3
			s-0.3-0.5-0.3-0.9c0-0.3,0.1-0.6,0.3-0.8s0.5-0.3,0.8-0.3C73.7,54.5,73.9,54.6,74.2,54.8z"/>
	</g>
</g>
</svg>
